<svg width="99" height="25" viewBox="0 0 99 25" fill="none" xmlns="http://www.w3.org/2000/svg">
<g id="Frame 1">
<rect width="99" height="25" rx="5" fill="white" fill-opacity="0.15"/>
<line id="Line 1" x1="10" y1="19.5" x2="65" y2="19.5" stroke="#025AFD"/>
<path id="My" d="M24.8594 15.9648C24.8203 16.0039 24.7773 16.0273 24.7305 16.0352C24.6836 16.043 24.6367 16.0469 24.5898 16.0469C24.4727 16.1016 24.3477 16.1289 24.2148 16.1289C24.1289 16.082 24.082 16.0664 24.0742 16.082C24.0664 16.0977 24.0508 16.1133 24.0273 16.1289C23.9102 16.1836 23.8047 16.2109 23.7109 16.2109C23.6172 16.2188 23.5391 16.2422 23.4766 16.2812C23.4141 16.2344 23.3789 16.1641 23.3711 16.0703C23.3711 15.9844 23.3633 15.9102 23.3477 15.8477C23.3086 15.793 23.2812 15.7266 23.2656 15.6484C23.25 15.5625 23.2383 15.4766 23.2305 15.3906C23.2227 15.3047 23.2109 15.2227 23.1953 15.1445C23.1875 15.0586 23.168 14.9844 23.1367 14.9219C23.1289 14.8828 23.125 14.8477 23.125 14.8164C23.1328 14.7852 23.1289 14.75 23.1133 14.7109C23.1211 14.5781 23.1172 14.4727 23.1016 14.3945C23.0859 14.3164 23.0703 14.2344 23.0547 14.1484C23.0469 14.1016 23.043 14.0508 23.043 13.9961C23.043 13.9336 23.0195 13.8867 22.9727 13.8555C22.9961 13.7461 23 13.6641 22.9844 13.6094C22.9688 13.5547 22.957 13.5039 22.9492 13.457C22.9414 13.3945 22.9375 13.3281 22.9375 13.2578C22.9375 13.1797 22.9297 13.1094 22.9141 13.0469C22.8672 12.6719 22.8164 12.2969 22.7617 11.9219C22.707 11.5469 22.6562 11.1719 22.6094 10.7969C22.5625 10.8359 22.5273 10.8945 22.5039 10.9727C22.4883 11.0508 22.4727 11.1211 22.457 11.1836C22.4102 11.3242 22.3672 11.4688 22.3281 11.6172C22.2891 11.7656 22.25 11.9102 22.2109 12.0508C22.1953 12.1133 22.1797 12.1875 22.1641 12.2734C22.1562 12.3516 22.1406 12.4219 22.1172 12.4844C22.0391 12.7109 21.9688 12.9062 21.9062 13.0703C21.8516 13.2344 21.7969 13.4023 21.7422 13.5742C21.7266 13.668 21.7109 13.7578 21.6953 13.8438C21.6797 13.9297 21.6641 14.0156 21.6484 14.1016C21.6406 14.1484 21.6289 14.2148 21.6133 14.3008C21.5977 14.3867 21.582 14.4492 21.5664 14.4883C21.5508 14.5273 21.5352 14.5547 21.5195 14.5703C21.5117 14.5859 21.5117 14.6133 21.5195 14.6523C21.4414 14.7695 21.3867 14.8984 21.3555 15.0391C21.332 15.1797 21.2852 15.3164 21.2148 15.4492C21.2148 15.543 21.1797 15.625 21.1094 15.6953C21.0703 15.7031 21.0312 15.7109 20.9922 15.7188C20.9609 15.7266 20.9258 15.7422 20.8867 15.7656C20.8477 15.75 20.8008 15.7422 20.7461 15.7422C20.6992 15.7344 20.6523 15.7305 20.6055 15.7305C20.5664 15.7227 20.5312 15.7109 20.5 15.6953C20.4688 15.6719 20.4336 15.6562 20.3945 15.6484C20.3555 15.6016 20.3125 15.5625 20.2656 15.5312C20.2188 15.4922 20.1719 15.4531 20.125 15.4141C20.0781 15.2969 20.0352 15.2188 19.9961 15.1797C19.9727 15.0938 19.9414 15.0156 19.9023 14.9453C19.8633 14.8672 19.8359 14.7812 19.8203 14.6875C19.7969 14.6016 19.7656 14.5234 19.7266 14.4531C19.6953 14.375 19.6602 14.293 19.6211 14.207C19.6055 14.1523 19.5859 14.1016 19.5625 14.0547C19.5469 14 19.5273 13.9453 19.5039 13.8906C19.4961 13.8281 19.4727 13.75 19.4336 13.6562C19.4023 13.5625 19.3789 13.4805 19.3633 13.4102C19.3633 13.4023 19.3477 13.3633 19.3164 13.293C19.293 13.2148 19.2656 13.1328 19.2344 13.0469C19.2109 12.9609 19.1836 12.8828 19.1523 12.8125C19.1289 12.7422 19.1133 12.7031 19.1055 12.6953C19.0898 12.6562 19.0742 12.6211 19.0586 12.5898C19.0508 12.5508 19.0391 12.5078 19.0234 12.4609C18.9922 12.3594 18.9531 12.2578 18.9062 12.1562C18.8594 12.0469 18.8125 11.9453 18.7656 11.8516C18.7266 11.7734 18.6992 11.6992 18.6836 11.6289C18.668 11.5508 18.6484 11.4766 18.625 11.4062C18.6094 11.3672 18.5938 11.332 18.5781 11.3008C18.5703 11.2695 18.5586 11.2344 18.543 11.1953C18.5273 11.1484 18.5117 11.1016 18.4961 11.0547C18.4805 11 18.4648 10.9453 18.4492 10.8906C18.4102 10.9062 18.3906 10.9414 18.3906 10.9961C18.3984 11.043 18.3984 11.0859 18.3906 11.125C18.375 11.2109 18.3672 11.2969 18.3672 11.3828C18.3672 11.4609 18.3633 11.543 18.3555 11.6289C18.3398 11.7227 18.3242 11.8125 18.3086 11.8984C18.293 11.9844 18.2812 12.0703 18.2734 12.1562C18.2734 12.3672 18.2617 12.5781 18.2383 12.7891C18.2227 12.9766 18.2031 13.168 18.1797 13.3633C18.1562 13.5508 18.1406 13.7461 18.1328 13.9492C18.1328 14.0977 18.1172 14.2461 18.0859 14.3945C18.0547 14.5352 18.0469 14.6836 18.0625 14.8398C18.0469 14.8711 18.0391 14.8945 18.0391 14.9102C18.0391 14.9258 18.0391 14.9492 18.0391 14.9805C18.0391 15.0195 18.0352 15.0625 18.0273 15.1094C18.0273 15.1562 18.0273 15.1992 18.0273 15.2383C18.0273 15.3086 18.0352 15.3555 18.0508 15.3789C18.0273 15.4492 18.0156 15.5273 18.0156 15.6133C18.0156 15.6914 18.0156 15.7695 18.0156 15.8477C18 15.8789 17.9883 15.9102 17.9805 15.9414C17.9805 15.9727 17.9688 16.0039 17.9453 16.0352C17.9531 16.168 17.9141 16.2344 17.8281 16.2344C17.8047 16.2344 17.7773 16.2266 17.7461 16.2109C17.7227 16.2031 17.7031 16.1875 17.6875 16.1641C17.6016 16.1719 17.5508 16.1523 17.5352 16.1055C17.5273 16.0586 17.5039 16.0391 17.4648 16.0469C17.3711 16.0859 17.3164 16.0977 17.3008 16.082C17.293 16.0664 17.2695 16.0625 17.2305 16.0703C17.168 16.0078 17.125 15.9805 17.1016 15.9883C17.0859 15.9961 17.0703 16 17.0547 16C16.9844 15.9766 16.9453 15.9727 16.9375 15.9883C16.9297 15.9961 16.9141 16 16.8906 16C16.8516 15.9609 16.7969 15.9414 16.7266 15.9414C16.6641 15.9414 16.6094 15.9375 16.5625 15.9297C16.5547 15.8984 16.5469 15.8711 16.5391 15.8477C16.5391 15.8164 16.5391 15.7812 16.5391 15.7422C16.5391 15.6953 16.5391 15.6523 16.5391 15.6133C16.5469 15.5664 16.5508 15.5195 16.5508 15.4727C16.5508 15.4336 16.5469 15.3945 16.5391 15.3555C16.5391 15.3086 16.5391 15.2578 16.5391 15.2031C16.5391 15.1484 16.543 15.0977 16.5508 15.0508C16.5586 14.9961 16.5625 14.9375 16.5625 14.875C16.5625 14.8516 16.5586 14.832 16.5508 14.8164C16.543 14.793 16.5391 14.7656 16.5391 14.7344C16.5859 14.6328 16.6055 14.5547 16.5977 14.5C16.5977 14.4375 16.6016 14.3789 16.6094 14.3242C16.625 14.1914 16.6367 14.0625 16.6445 13.9375C16.6602 13.8047 16.6758 13.6719 16.6914 13.5391C16.6914 13.3203 16.6953 13.1406 16.7031 13C16.7188 12.8516 16.7383 12.7031 16.7617 12.5547C16.7773 12.4844 16.7891 12.418 16.7969 12.3555C16.8125 12.293 16.8281 12.2266 16.8438 12.1562C16.8594 12.0391 16.8672 11.918 16.8672 11.793C16.875 11.6602 16.8867 11.5312 16.9023 11.4062C16.918 11.2109 16.9375 11.0195 16.9609 10.832C16.9844 10.6367 17.0039 10.4453 17.0195 10.2578C17.0352 10.1094 17.0508 9.96484 17.0664 9.82422C17.0898 9.67578 17.1016 9.53516 17.1016 9.40234C17.1016 9.33203 17.1094 9.24219 17.125 9.13281C17.1484 9.02344 17.1641 8.92969 17.1719 8.85156C17.1875 8.66406 17.1992 8.48047 17.207 8.30078C17.2227 8.12109 17.2305 7.94141 17.2305 7.76172V7.63281C17.2305 7.61719 17.2383 7.60156 17.2539 7.58594C17.2695 7.57031 17.2773 7.54297 17.2773 7.50391C17.2773 7.43359 17.293 7.38672 17.3242 7.36328C17.3633 7.33203 17.3945 7.28516 17.418 7.22266C17.457 7.22266 17.5 7.22656 17.5469 7.23438C17.6016 7.24219 17.6406 7.26562 17.6641 7.30469C17.7188 7.28906 17.7734 7.28125 17.8281 7.28125C17.8828 7.28125 17.9297 7.26172 17.9688 7.22266C18.0156 7.22266 18.0508 7.23438 18.0742 7.25781C18.0977 7.28125 18.1289 7.30078 18.168 7.31641C18.1992 7.30078 18.2305 7.28906 18.2617 7.28125C18.293 7.26562 18.3242 7.25 18.3555 7.23438C18.3789 7.25 18.3945 7.26953 18.4023 7.29297C18.418 7.30859 18.4375 7.32031 18.4609 7.32812C18.5781 7.29688 18.6562 7.29297 18.6953 7.31641C18.7109 7.34766 18.7188 7.37891 18.7188 7.41016C18.7266 7.44141 18.7344 7.47266 18.7422 7.50391C18.8203 7.58203 18.8711 7.67188 18.8945 7.77344C18.918 7.86719 18.9609 7.95312 19.0234 8.03125C19.0391 8.07812 19.0547 8.125 19.0703 8.17188C19.0938 8.21875 19.1133 8.27344 19.1289 8.33594L19.1641 8.47656C19.1953 8.55469 19.2344 8.64844 19.2812 8.75781C19.3203 8.90625 19.3555 9.05859 19.3867 9.21484C19.418 9.37109 19.4688 9.51562 19.5391 9.64844C19.5469 9.69531 19.5586 9.75391 19.5742 9.82422C19.5977 9.88672 19.6172 9.94141 19.6328 9.98828C19.6875 10.1211 19.7422 10.2539 19.7969 10.3867C19.8594 10.5117 19.9141 10.6484 19.9609 10.7969C20.0078 10.9453 20.0469 11.0977 20.0781 11.2539C20.1172 11.4102 20.1641 11.5625 20.2188 11.7109C20.2656 11.8516 20.3008 11.9531 20.3242 12.0156C20.3477 12.0781 20.3789 12.1406 20.418 12.2031C20.418 12.2266 20.4219 12.2656 20.4297 12.3203C20.4453 12.375 20.4648 12.4336 20.4883 12.4961C20.5117 12.5508 20.5352 12.6055 20.5586 12.6602C20.582 12.707 20.6055 12.7344 20.6289 12.7422C20.6523 12.7266 20.6641 12.7031 20.6641 12.6719C20.6719 12.6406 20.6875 12.6133 20.7109 12.5898C20.7188 12.5039 20.7305 12.3984 20.7461 12.2734C20.7695 12.1484 20.8008 12.0469 20.8398 11.9688C20.8398 11.9297 20.8477 11.8594 20.8633 11.7578C20.8867 11.6484 20.9141 11.5352 20.9453 11.418C20.9766 11.293 21.0039 11.1797 21.0273 11.0781C21.0586 10.9766 21.0859 10.9141 21.1094 10.8906C21.125 10.7891 21.1367 10.7266 21.1445 10.7031C21.1602 10.6797 21.1758 10.6602 21.1914 10.6445C21.1992 10.582 21.2148 10.5234 21.2383 10.4688C21.2617 10.4141 21.2773 10.3555 21.2852 10.293C21.3008 10.1602 21.3203 10.0508 21.3438 9.96484C21.3672 9.87891 21.3984 9.77344 21.4375 9.64844C21.4688 9.53906 21.4961 9.42969 21.5195 9.32031C21.5508 9.20312 21.5859 9.08984 21.625 8.98047C21.7188 8.68359 21.8008 8.42188 21.8711 8.19531C21.9492 7.96094 22.043 7.73438 22.1523 7.51562C22.1758 7.44531 22.1953 7.40234 22.2109 7.38672C22.2266 7.37109 22.2422 7.35547 22.2578 7.33984C22.3203 7.31641 22.3828 7.30469 22.4453 7.30469C22.5156 7.30469 22.5859 7.30859 22.6562 7.31641C22.7344 7.28516 22.793 7.25 22.832 7.21094C22.8633 7.25 22.9102 7.26953 22.9727 7.26953C23.0508 7.26953 23.1055 7.24609 23.1367 7.19922C23.168 7.21484 23.1914 7.21875 23.207 7.21094C23.2305 7.20312 23.2617 7.20703 23.3008 7.22266C23.3164 7.20703 23.3359 7.19141 23.3594 7.17578C23.3828 7.15234 23.4062 7.14062 23.4297 7.14062C23.4922 7.21875 23.5391 7.28125 23.5703 7.32812C23.6094 7.36719 23.6367 7.41406 23.6523 7.46875C23.6758 7.53906 23.6875 7.61719 23.6875 7.70312C23.6953 7.78125 23.7188 7.85547 23.7578 7.92578C23.75 8.02734 23.7539 8.18359 23.7695 8.39453C23.793 8.59766 23.8164 8.81641 23.8398 9.05078C23.8711 9.27734 23.9023 9.48828 23.9336 9.68359C23.9648 9.87891 23.9922 10 24.0156 10.0469C24.0078 10.1484 24.0117 10.2344 24.0273 10.3047C24.043 10.375 24.0508 10.4453 24.0508 10.5156C24.0508 10.5391 24.0547 10.5898 24.0625 10.668C24.0703 10.7383 24.0781 10.8164 24.0859 10.9023C24.0938 10.9805 24.1016 11.0586 24.1094 11.1367C24.125 11.207 24.1367 11.2578 24.1445 11.2891C24.1445 11.4297 24.168 11.5391 24.2148 11.6172C24.2539 11.8125 24.2852 12.0078 24.3086 12.2031C24.3398 12.3984 24.3672 12.5977 24.3906 12.8008C24.4062 12.9023 24.4141 13 24.4141 13.0938C24.4219 13.1875 24.4336 13.2852 24.4492 13.3867C24.457 13.4258 24.4648 13.4648 24.4727 13.5039C24.4883 13.543 24.5 13.582 24.5078 13.6211C24.5234 13.6992 24.5352 13.7734 24.543 13.8438C24.5508 13.9141 24.5625 13.9844 24.5781 14.0547C24.5859 14.0938 24.5977 14.1367 24.6133 14.1836C24.6289 14.2227 24.6289 14.2656 24.6133 14.3125C24.6289 14.3672 24.6328 14.4258 24.625 14.4883C24.625 14.5508 24.6406 14.6055 24.6719 14.6523C24.6719 14.8164 24.6836 14.9609 24.707 15.0859C24.7148 15.1797 24.7383 15.2734 24.7773 15.3672C24.793 15.4609 24.8047 15.5586 24.8125 15.6602C24.8281 15.7617 24.8438 15.8633 24.8594 15.9648ZM30.7539 7.70312C30.668 7.85938 30.5703 8.04297 30.4609 8.25391C30.3516 8.46484 30.2656 8.64844 30.2031 8.80469C30.1797 8.85938 30.1562 8.91406 30.1328 8.96875C30.1172 9.01562 30.0977 9.06641 30.0742 9.12109C30.0352 9.23828 29.9844 9.35156 29.9219 9.46094C29.8672 9.5625 29.8164 9.67188 29.7695 9.78906C29.6992 9.94531 29.625 10.1055 29.5469 10.2695C29.4766 10.4258 29.4062 10.5898 29.3359 10.7617C29.2578 10.918 29.1953 11.0547 29.1484 11.1719C29.1094 11.2812 29.0664 11.3945 29.0195 11.5117C28.9727 11.6289 28.9297 11.7461 28.8906 11.8633C28.8594 11.9727 28.832 12.0742 28.8086 12.168C28.7383 12.293 28.6797 12.3867 28.6328 12.4492C28.6172 12.5898 28.6016 12.7305 28.5859 12.8711C28.5703 13.0117 28.5625 13.1562 28.5625 13.3047C28.5625 13.375 28.5664 13.4453 28.5742 13.5156C28.5898 13.5781 28.6016 13.6445 28.6094 13.7148C28.6172 13.8164 28.6172 13.918 28.6094 14.0195C28.6094 14.1133 28.6133 14.2109 28.6211 14.3125C28.6289 14.5078 28.6367 14.7031 28.6445 14.8984C28.6602 15.0859 28.6719 15.2812 28.6797 15.4844C28.6875 15.625 28.6797 15.7461 28.6562 15.8477C28.6406 15.9414 28.6367 16.0391 28.6445 16.1406C28.6211 16.1562 28.5938 16.168 28.5625 16.1758C28.5391 16.1836 28.5156 16.1953 28.4922 16.2109C28.4062 16.2109 28.3477 16.207 28.3164 16.1992C28.293 16.1992 28.2695 16.207 28.2461 16.2227C28.1758 16.1758 28.1367 16.1523 28.1289 16.1523C28.1211 16.1602 28.1133 16.1641 28.1055 16.1641C28.0117 16.1328 27.9609 16.1094 27.9531 16.0938C27.9453 16.0781 27.9297 16.0625 27.9062 16.0469C27.8203 16.0469 27.75 16.0586 27.6953 16.082C27.6719 16.0664 27.6523 16.0508 27.6367 16.0352C27.6211 16.0195 27.6016 16.0039 27.5781 15.9883C27.5078 15.9805 27.4492 15.9727 27.4023 15.9648C27.3555 15.9492 27.3164 15.9336 27.2852 15.918C27.2617 15.8555 27.2344 15.8008 27.2031 15.7539C27.1797 15.707 27.168 15.6445 27.168 15.5664C27.168 15.5039 27.1758 15.4453 27.1914 15.3906C27.207 15.3359 27.2188 15.2773 27.2266 15.2148C27.2266 15.1758 27.2227 15.1406 27.2148 15.1094C27.2148 15.0781 27.2148 15.043 27.2148 15.0039C27.2148 14.9648 27.2227 14.9141 27.2383 14.8516C27.2148 14.6719 27.2031 14.4844 27.2031 14.2891C27.2109 14.0859 27.2148 13.8945 27.2148 13.7148C27.2148 13.5352 27.1992 13.3672 27.168 13.2109C27.1758 13.1094 27.1758 13.0391 27.168 13C27.1602 12.9531 27.1562 12.9062 27.1562 12.8594C27.1562 12.8203 27.1602 12.7812 27.168 12.7422C27.1758 12.6953 27.1797 12.6523 27.1797 12.6133C27.1797 12.6055 27.1719 12.5664 27.1562 12.4961C27.1484 12.418 27.1367 12.3398 27.1211 12.2617C27.1055 12.1758 27.0898 12.0977 27.0742 12.0273C27.0586 11.9492 27.0508 11.9023 27.0508 11.8867C26.9727 11.7461 26.9141 11.6133 26.875 11.4883C26.8359 11.3633 26.793 11.2578 26.7461 11.1719C26.7148 11.1094 26.6836 11.0469 26.6523 10.9844C26.6211 10.9219 26.5938 10.8555 26.5703 10.7852C26.5547 10.7461 26.5391 10.7031 26.5234 10.6562C26.5156 10.6094 26.5039 10.5664 26.4883 10.5273C26.457 10.4648 26.4258 10.3984 26.3945 10.3281C26.3711 10.25 26.3398 10.1875 26.3008 10.1406C26.2695 10.0703 26.2383 10.0078 26.207 9.95312C26.1836 9.89062 26.1719 9.83203 26.1719 9.77734C26.1484 9.68359 26.1094 9.60156 26.0547 9.53125C26.0078 9.45312 25.9648 9.375 25.9258 9.29688C25.9023 9.25 25.8828 9.20703 25.8672 9.16797C25.8594 9.12891 25.8477 9.08984 25.832 9.05078C25.8164 9.01953 25.793 8.98047 25.7617 8.93359C25.7383 8.88672 25.7109 8.85156 25.6797 8.82812C25.6641 8.75781 25.6367 8.69531 25.5977 8.64062C25.5586 8.58594 25.5312 8.52344 25.5156 8.45312C25.4766 8.39844 25.4336 8.34375 25.3867 8.28906C25.3555 8.17188 25.3125 8.06641 25.2578 7.97266C25.2031 7.87109 25.1523 7.76562 25.1055 7.65625C25.1367 7.49219 25.2266 7.39062 25.375 7.35156C25.4531 7.25781 25.5 7.20703 25.5156 7.19922C25.5312 7.19141 25.5664 7.1875 25.6211 7.1875C25.668 7.14844 25.7148 7.11719 25.7617 7.09375C25.8086 7.0625 25.8633 7.05469 25.9258 7.07031C25.9336 7.03906 25.9531 7.01172 25.9844 6.98828C26.0234 6.96484 26.0586 6.95312 26.0898 6.95312C26.1367 6.95312 26.1758 6.97656 26.207 7.02344C26.2461 7.07031 26.2852 7.10547 26.3242 7.12891C26.3867 7.23828 26.4492 7.34375 26.5117 7.44531C26.582 7.54688 26.6406 7.65234 26.6875 7.76172C26.7422 7.87109 26.7891 7.98047 26.8281 8.08984C26.875 8.19922 26.9414 8.30469 27.0273 8.40625C27.0664 8.5625 27.125 8.71094 27.2031 8.85156C27.2891 8.98438 27.3594 9.12891 27.4141 9.28516C27.4531 9.37891 27.4961 9.47266 27.543 9.56641C27.5977 9.65234 27.6445 9.74609 27.6836 9.84766C27.707 9.89453 27.7266 9.94141 27.7422 9.98828C27.7578 10.0352 27.7734 10.082 27.7891 10.1289C27.8047 10.168 27.8203 10.2188 27.8359 10.2812C27.8516 10.3438 27.8711 10.3945 27.8945 10.4336C27.9492 10.3789 27.9961 10.3086 28.0352 10.2227C28.0898 10.1133 28.1445 10.0117 28.1992 9.91797C28.2617 9.81641 28.3164 9.71094 28.3633 9.60156C28.4258 9.5 28.4688 9.39453 28.4922 9.28516C28.5234 9.17578 28.5586 9.06641 28.5977 8.95703C28.6133 8.91797 28.6289 8.87891 28.6445 8.83984C28.668 8.80078 28.6875 8.75781 28.7031 8.71094C28.7266 8.66406 28.7461 8.61719 28.7617 8.57031C28.7773 8.52344 28.793 8.47656 28.8086 8.42969C28.8633 8.28125 28.9219 8.13672 28.9844 7.99609C29.0547 7.84766 29.125 7.69922 29.1953 7.55078C29.2031 7.52734 29.2188 7.49219 29.2422 7.44531C29.2734 7.39844 29.3047 7.35156 29.3359 7.30469C29.375 7.25 29.4102 7.20312 29.4414 7.16406C29.4727 7.125 29.5 7.09766 29.5234 7.08203C29.5391 7.06641 29.5625 7.05859 29.5938 7.05859C29.6328 7.05078 29.6641 7.04297 29.6875 7.03516C29.7578 7.03516 29.8086 7.05469 29.8398 7.09375C29.9336 7.13281 30.0039 7.16016 30.0508 7.17578C30.0977 7.19141 30.1328 7.22656 30.1562 7.28125C30.2734 7.35938 30.3594 7.40625 30.4141 7.42188C30.4766 7.42969 30.5234 7.46094 30.5547 7.51562C30.6406 7.57031 30.6914 7.60938 30.707 7.63281C30.7227 7.65625 30.7383 7.67969 30.7539 7.70312Z" fill="white"/>
<path id="Blog" d="M39.332 9.40234C39.332 9.48828 39.3477 9.5625 39.3789 9.625C39.418 9.67969 39.4375 9.73047 39.4375 9.77734C39.4219 9.85547 39.4375 9.94922 39.4844 10.0586C39.5312 10.1602 39.5547 10.2656 39.5547 10.375C39.5391 10.4219 39.4766 10.4844 39.3672 10.5625C39.2656 10.6328 39.1484 10.7109 39.0156 10.7969C38.8906 10.8828 38.7656 10.9688 38.6406 11.0547C38.5234 11.1328 38.4414 11.1953 38.3945 11.2422C38.4336 11.3047 38.4805 11.3555 38.5352 11.3945C38.5977 11.4336 38.6562 11.4727 38.7109 11.5117C38.7578 11.5508 38.8242 11.6094 38.9102 11.6875C39.0039 11.7578 39.0977 11.8359 39.1914 11.9219C39.293 12.0078 39.3828 12.0898 39.4609 12.168C39.5469 12.2461 39.6016 12.3047 39.625 12.3438C39.6406 12.3516 39.6523 12.3789 39.6602 12.4258C39.6758 12.4727 39.6875 12.5273 39.6953 12.5898C39.7031 12.6445 39.707 12.6992 39.707 12.7539C39.7148 12.8086 39.7188 12.8438 39.7188 12.8594C39.7109 12.9453 39.7109 13.0078 39.7188 13.0469C39.7344 13.0859 39.7461 13.1289 39.7539 13.1758C39.7695 13.2148 39.7812 13.2539 39.7891 13.293C39.7969 13.332 39.8008 13.3516 39.8008 13.3516C39.8008 13.3984 39.7773 13.4414 39.7305 13.4805C39.6914 13.5195 39.6523 13.5547 39.6133 13.5859C39.5742 13.6172 39.5352 13.6484 39.4961 13.6797C39.4648 13.7109 39.4297 13.7461 39.3906 13.7852C39.3438 13.8242 39.2891 13.8633 39.2266 13.9023C39.1719 13.9336 39.1211 13.9688 39.0742 14.0078C39.043 14.0234 39.0156 14.0469 38.9922 14.0781C38.9688 14.1016 38.9453 14.1211 38.9219 14.1367C38.8516 14.1992 38.7734 14.2617 38.6875 14.3242C38.6016 14.3789 38.5195 14.4297 38.4414 14.4766C38.3555 14.5312 38.2734 14.5898 38.1953 14.6523C38.1172 14.707 38.0352 14.7656 37.9492 14.8281C37.832 14.8984 37.7148 14.9688 37.5977 15.0391C37.4883 15.1016 37.3789 15.168 37.2695 15.2383C37.2148 15.2773 37.1602 15.3164 37.1055 15.3555C37.0586 15.3945 37.0078 15.4297 36.9531 15.4609C36.7969 15.5469 36.6406 15.6367 36.4844 15.7305C36.3281 15.8242 36.1758 15.9258 36.0273 16.0352C35.9023 16.0664 35.8125 16.0898 35.7578 16.1055C35.7031 16.1289 35.6484 16.1406 35.5938 16.1406C35.5469 16.1406 35.5156 16.1211 35.5 16.082C35.4922 16.0508 35.4727 16.0352 35.4414 16.0352C35.3242 16.0508 35.2578 16.0508 35.2422 16.0352C35.2344 16.0273 35.2188 16.0156 35.1953 16C35.0781 16.0156 34.9805 16.0156 34.9023 16C34.8789 15.9609 34.8633 15.9141 34.8555 15.8594C34.8477 15.7969 34.8242 15.7461 34.7852 15.707C34.8008 15.6289 34.8008 15.5547 34.7852 15.4844C34.7773 15.4141 34.7812 15.3438 34.7969 15.2734C34.7734 15.1797 34.7617 15.0938 34.7617 15.0156C34.7617 14.9141 34.7734 14.8086 34.7969 14.6992C34.7734 14.6289 34.7617 14.5586 34.7617 14.4883C34.7617 14.4258 34.7656 14.3633 34.7734 14.3008C34.7812 14.2383 34.7852 14.1758 34.7852 14.1133C34.7852 14.0352 34.7695 13.9648 34.7383 13.9023C34.7383 13.7617 34.7344 13.625 34.7266 13.4922C34.7266 13.3516 34.7266 13.2109 34.7266 13.0703C34.7266 13.0078 34.7266 12.9453 34.7266 12.8828C34.7266 12.8203 34.7305 12.7539 34.7383 12.6836C34.7305 12.6445 34.7266 12.5859 34.7266 12.5078C34.7266 12.4609 34.7344 12.4219 34.75 12.3906C34.7656 12.3516 34.7734 12.3125 34.7734 12.2734C34.7734 12.1875 34.7656 12.1055 34.75 12.0273C34.7422 11.9492 34.7383 11.8672 34.7383 11.7812C34.7383 11.7031 34.7422 11.6289 34.75 11.5586C34.7656 11.4883 34.7734 11.4141 34.7734 11.3359C34.75 11.3047 34.7344 11.2695 34.7266 11.2305C34.7188 11.1914 34.7148 11.1523 34.7148 11.1133C34.7148 11.082 34.7227 11.0352 34.7383 10.9727C34.7383 10.9102 34.7344 10.8438 34.7266 10.7734C34.7188 10.7031 34.7148 10.6367 34.7148 10.5742C34.7148 10.543 34.7148 10.5156 34.7148 10.4922C34.7227 10.4688 34.7305 10.4414 34.7383 10.4102C34.7227 10.3555 34.7148 10.3008 34.7148 10.2461C34.7148 10.1914 34.7148 10.1367 34.7148 10.082C34.7148 10.0117 34.7188 9.94141 34.7266 9.87109C34.7344 9.79297 34.7383 9.71875 34.7383 9.64844C34.7305 9.53125 34.7305 9.44141 34.7383 9.37891C34.7539 9.30859 34.7656 9.23828 34.7734 9.16797V8.5C34.7734 8.4375 34.7656 8.37109 34.75 8.30078C34.7344 8.22266 34.7266 8.14844 34.7266 8.07812C34.7266 8.03906 34.7305 7.98047 34.7383 7.90234C34.7461 7.82422 34.7578 7.76562 34.7734 7.72656C34.8828 7.5625 35.0117 7.46875 35.1602 7.44531C35.1914 7.42969 35.2148 7.41016 35.2305 7.38672C35.2461 7.35547 35.2812 7.33984 35.3359 7.33984C35.4297 7.26172 35.4922 7.20312 35.5234 7.16406C35.5547 7.11719 35.5938 7.07422 35.6406 7.03516C35.6641 7.03516 35.6836 7.03125 35.6992 7.02344C35.7227 7.00781 35.75 7 35.7812 7C35.8359 7.01562 35.8789 7.03125 35.9102 7.04688C35.9492 7.0625 35.9883 7.07422 36.0273 7.08203C36.1836 7.19922 36.3359 7.31641 36.4844 7.43359C36.6406 7.54297 36.7969 7.66016 36.9531 7.78516C37.0234 7.84766 37.0898 7.91016 37.1523 7.97266C37.2227 8.03516 37.293 8.09375 37.3633 8.14844C37.4023 8.17188 37.4453 8.19531 37.4922 8.21875C37.5391 8.24219 37.582 8.26953 37.6211 8.30078C37.707 8.35547 37.793 8.41406 37.8789 8.47656C37.9648 8.53125 38.0508 8.58594 38.1367 8.64062L38.9805 9.16797C39.043 9.20703 39.1016 9.24609 39.1562 9.28516C39.2188 9.32422 39.2773 9.36328 39.332 9.40234ZM37.6562 9.90625C37.5391 9.85156 37.4258 9.78516 37.3164 9.70703C37.2148 9.62891 37.1055 9.57031 36.9883 9.53125C36.9258 9.46875 36.8594 9.42578 36.7891 9.40234C36.7188 9.37891 36.6523 9.34375 36.5898 9.29688C36.5195 9.23438 36.457 9.17969 36.4023 9.13281C36.3477 9.08594 36.2773 9.04297 36.1914 9.00391C36.1523 9.24609 36.1211 9.48438 36.0977 9.71875C36.082 9.94531 36.0742 10.1758 36.0742 10.4102C36.0742 10.6523 36.0977 10.8828 36.1445 11.1016C36.2305 11.0625 36.3125 11.0195 36.3906 10.9727C36.4688 10.9258 36.5469 10.8789 36.625 10.832C36.6562 10.8164 36.6836 10.8008 36.707 10.7852C36.7383 10.7695 36.7734 10.7539 36.8125 10.7383C36.8516 10.707 36.8906 10.6758 36.9297 10.6445C36.9688 10.6133 37.0078 10.5859 37.0469 10.5625C37.1328 10.5 37.2148 10.4453 37.293 10.3984C37.3789 10.3438 37.4648 10.2852 37.5508 10.2227C37.5898 10.1914 37.6328 10.168 37.6797 10.1523C37.7266 10.1289 37.7734 10.0977 37.8203 10.0586C37.8125 10.0273 37.7852 10.0039 37.7383 9.98828C37.6992 9.96484 37.6719 9.9375 37.6562 9.90625ZM37.3164 12.0977C37.293 12.0977 37.2695 12.0938 37.2461 12.0859C37.2227 12.0703 37.1953 12.0625 37.1641 12.0625C37.0703 12.125 36.9805 12.1797 36.8945 12.2266C36.8164 12.2656 36.7344 12.3125 36.6484 12.3672C36.6094 12.3906 36.5703 12.418 36.5312 12.4492C36.4922 12.4805 36.4531 12.5039 36.4141 12.5195C36.3125 12.582 36.2344 12.6367 36.1797 12.6836C36.125 12.7227 36.082 12.7734 36.0508 12.8359C36.0664 13.0547 36.0703 13.2734 36.0625 13.4922C36.0625 13.7109 36.0625 13.9336 36.0625 14.1602C36.0625 14.1992 36.0742 14.2422 36.0977 14.2891C36.168 14.2812 36.293 14.2305 36.4727 14.1367C36.6523 14.0352 36.8398 13.9219 37.0352 13.7969C37.2383 13.6719 37.4297 13.5508 37.6094 13.4336C37.7969 13.3164 37.9336 13.2305 38.0195 13.1758C38.082 13.1602 38.1523 13.1289 38.2305 13.082C38.3164 13.0352 38.3672 12.9805 38.3828 12.918C38.2344 12.7461 38.0625 12.6055 37.8672 12.4961C37.6719 12.3789 37.4883 12.2461 37.3164 12.0977ZM45.0977 13.9961C45.1523 14.0664 45.1836 14.125 45.1914 14.1719C45.207 14.2109 45.2227 14.2539 45.2383 14.3008C45.2539 14.3398 45.2656 14.3789 45.2734 14.418C45.2891 14.457 45.2969 14.4805 45.2969 14.4883C45.2969 14.543 45.2852 14.5898 45.2617 14.6289C45.2461 14.6602 45.2188 14.7031 45.1797 14.7578C44.8672 14.875 44.5586 14.9922 44.2539 15.1094C43.9492 15.2188 43.6367 15.3281 43.3164 15.4375C43.2305 15.4609 43.1523 15.4883 43.082 15.5195C43.0117 15.543 42.9336 15.5625 42.8477 15.5781C42.832 15.5938 42.8047 15.6094 42.7656 15.625C42.7344 15.6328 42.6953 15.6445 42.6484 15.6602C42.6016 15.6758 42.5547 15.6914 42.5078 15.707C42.4688 15.7148 42.4414 15.7188 42.4258 15.7188C42.3633 15.7344 42.293 15.7422 42.2148 15.7422C42.1445 15.7344 42.0742 15.7344 42.0039 15.7422C41.9648 15.75 41.9375 15.7695 41.9219 15.8008C41.9062 15.832 41.8867 15.8672 41.8633 15.9062C41.8477 15.9375 41.8203 15.9688 41.7812 16C41.7422 16.0234 41.6875 16.0352 41.6172 16.0352C41.5469 16.0352 41.4766 16.0312 41.4062 16.0234C41.3359 16.0156 41.2617 15.9961 41.1836 15.9648C41.168 15.9414 41.1602 15.9141 41.1602 15.8828C41.168 15.8438 41.1641 15.8125 41.1484 15.7891C41.0781 15.7812 41.0234 15.7891 40.9844 15.8125C40.9453 15.8281 40.9062 15.8398 40.8672 15.8477C40.8438 15.8164 40.8242 15.7812 40.8086 15.7422C40.8008 15.6953 40.7812 15.6562 40.75 15.625C40.7422 15.5859 40.7383 15.5469 40.7383 15.5078C40.7383 15.4688 40.7383 15.4297 40.7383 15.3906C40.7383 15.3359 40.7383 15.2734 40.7383 15.2031C40.7461 15.125 40.7617 15.0664 40.7852 15.0273C40.8086 14.582 40.8203 14.1367 40.8203 13.6914C40.8203 13.2461 40.8203 12.8008 40.8203 12.3555C40.8203 12.3086 40.8203 12.25 40.8203 12.1797C40.8203 12.1016 40.8164 12.0234 40.8086 11.9453C40.8086 11.8672 40.8047 11.7969 40.7969 11.7344C40.7969 11.6641 40.793 11.6133 40.7852 11.582C40.793 11.5273 40.7969 11.4766 40.7969 11.4297C40.7969 11.375 40.7969 11.3203 40.7969 11.2656C40.7969 11.2188 40.7969 11.1758 40.7969 11.1367C40.7969 11.0977 40.7891 11.0586 40.7734 11.0195C40.7812 10.9883 40.7852 10.9453 40.7852 10.8906C40.7852 10.8516 40.7812 10.8125 40.7734 10.7734C40.7656 10.7344 40.7617 10.6953 40.7617 10.6562C40.7617 10.5938 40.7617 10.5352 40.7617 10.4805C40.7695 10.418 40.7734 10.3555 40.7734 10.293C40.7734 10.0898 40.7617 9.89062 40.7383 9.69531C40.7227 9.49219 40.7148 9.28906 40.7148 9.08594C40.7148 8.82031 40.7109 8.55469 40.7031 8.28906C40.7031 8.02344 40.6992 7.75781 40.6914 7.49219C40.7227 7.41406 40.7383 7.34766 40.7383 7.29297C40.8477 7.23828 40.9336 7.21875 40.9961 7.23438C41.0586 7.25 41.1211 7.25781 41.1836 7.25781C41.2227 7.25781 41.2578 7.25391 41.2891 7.24609C41.3203 7.23828 41.3516 7.22656 41.3828 7.21094C41.4219 7.21875 41.4531 7.23047 41.4766 7.24609C41.5078 7.25391 41.543 7.25781 41.582 7.25781C41.6992 7.23438 41.7617 7.23047 41.7695 7.24609C41.7852 7.26172 41.8047 7.27734 41.8281 7.29297C41.8594 7.28516 41.8828 7.27344 41.8984 7.25781C41.9219 7.23438 41.9492 7.22266 41.9805 7.22266C42.0273 7.22266 42.0625 7.25391 42.0859 7.31641C42.1094 7.37109 42.1367 7.41797 42.168 7.45703C42.168 7.54297 42.1836 7.62109 42.2148 7.69141C42.2305 8.01172 42.2344 8.32812 42.2266 8.64062C42.2266 8.95312 42.2383 9.26562 42.2617 9.57812C42.2695 9.71875 42.2773 9.86719 42.2852 10.0234C42.3008 10.1719 42.3086 10.3164 42.3086 10.457C42.3086 10.6914 42.3086 10.9297 42.3086 11.1719C42.3164 11.4062 42.3203 11.6445 42.3203 11.8867C42.3203 11.9258 42.3203 11.9609 42.3203 11.9922C42.3281 12.0234 42.332 12.0586 42.332 12.0977C42.332 12.1914 42.3281 12.2812 42.3203 12.3672C42.3125 12.4531 42.3086 12.5391 42.3086 12.625V13.5391C42.3086 13.6172 42.3047 13.6992 42.2969 13.7852C42.2969 13.8633 42.3008 13.9414 42.3086 14.0195L42.3555 14.1602C42.4414 14.1289 42.5273 14.0977 42.6133 14.0664C42.707 14.0273 42.8047 14 42.9062 13.9844C42.9688 13.9688 43.0273 13.9531 43.082 13.9375C43.1367 13.9219 43.1953 13.9062 43.2578 13.8906C43.3672 13.8281 43.4531 13.7852 43.5156 13.7617C43.5781 13.7383 43.6406 13.7148 43.7031 13.6914C43.8359 13.6445 43.9648 13.5977 44.0898 13.5508C44.2148 13.4961 44.3438 13.4453 44.4766 13.3984C44.5391 13.4141 44.5898 13.4062 44.6289 13.375C44.707 13.3906 44.7773 13.3984 44.8398 13.3984C44.9258 13.4844 44.9766 13.5508 44.9922 13.5977C45.0156 13.6445 45.0469 13.6875 45.0859 13.7266C45.0703 13.7656 45.0703 13.7891 45.0859 13.7969C45.1094 13.8047 45.125 13.8242 45.1328 13.8555C45.1641 13.8711 45.168 13.8945 45.1445 13.9258C45.1211 13.9492 45.1055 13.9727 45.0977 13.9961ZM51.5898 11.3477C51.5742 11.3789 51.5586 11.4102 51.543 11.4414C51.5273 11.4648 51.5156 11.4922 51.5078 11.5234C51.5391 11.5547 51.5664 11.5898 51.5898 11.6289C51.6211 11.6602 51.6367 11.6953 51.6367 11.7344C51.6367 11.7656 51.6289 11.7969 51.6133 11.8281C51.6055 11.8516 51.6055 11.875 51.6133 11.8984C51.582 11.9531 51.5469 12.0039 51.5078 12.0508C51.4766 12.0977 51.4531 12.1484 51.4375 12.2031C51.4062 12.2344 51.3789 12.2656 51.3555 12.2969C51.3398 12.3281 51.3242 12.3594 51.3086 12.3906C51.2695 12.4062 51.2422 12.4336 51.2266 12.4727C51.2188 12.5039 51.1992 12.5312 51.168 12.5547C51.1602 12.5859 51.1211 12.6602 51.0508 12.7773C50.9805 12.8945 50.9023 13.0195 50.8164 13.1523C50.7305 13.2852 50.6484 13.4141 50.5703 13.5391C50.4922 13.6641 50.4375 13.7461 50.4062 13.7852C50.3906 13.8242 50.3711 13.8555 50.3477 13.8789C50.332 13.9023 50.3125 13.9297 50.2891 13.9609C50.2734 13.9844 50.2617 14.0117 50.2539 14.043C50.2461 14.0664 50.2344 14.0859 50.2188 14.1016C50.2031 14.1328 50.1836 14.1602 50.1602 14.1836C50.1445 14.207 50.1289 14.2383 50.1133 14.2773C50.0352 14.3789 49.957 14.5 49.8789 14.6406C49.8008 14.7812 49.7266 14.9062 49.6562 15.0156C49.6172 15.0781 49.5781 15.1406 49.5391 15.2031C49.5078 15.2656 49.4727 15.3281 49.4336 15.3906C49.3945 15.4531 49.3555 15.5117 49.3164 15.5664C49.2773 15.6211 49.2383 15.6797 49.1992 15.7422C49.1367 15.7891 49.082 15.8477 49.0352 15.918C48.9883 15.9805 48.9336 16.0352 48.8711 16.082C48.7695 16.082 48.707 16.0352 48.6836 15.9414C48.582 15.918 48.5312 15.918 48.5312 15.9414C48.5312 15.9648 48.5312 15.9844 48.5312 16C48.5 16.0156 48.4766 16.0391 48.4609 16.0703C48.4531 16.1016 48.4336 16.125 48.4023 16.1406C48.3398 16.125 48.2852 16.0977 48.2383 16.0586C48.1992 16.0273 48.1406 16.0156 48.0625 16.0234C48.0312 15.9766 47.9961 15.9375 47.957 15.9062C47.918 15.8672 47.8828 15.8281 47.8516 15.7891C47.8359 15.7422 47.8125 15.7031 47.7812 15.6719C47.7578 15.6406 47.7344 15.6094 47.7109 15.5781C47.6875 15.5391 47.6641 15.5039 47.6406 15.4727C47.6172 15.4414 47.5938 15.4102 47.5703 15.3789C47.5156 15.3086 47.4609 15.2422 47.4062 15.1797C47.3594 15.1094 47.3164 15.0391 47.2773 14.9688C47.2148 14.875 47.1523 14.7812 47.0898 14.6875C47.0352 14.5859 46.9766 14.4883 46.9141 14.3945C46.8828 14.3477 46.8516 14.3008 46.8203 14.2539C46.7891 14.207 46.7617 14.1602 46.7383 14.1133C46.7227 14.0742 46.6992 14.0273 46.668 13.9727C46.6445 13.918 46.6133 13.8828 46.5742 13.8672C46.5586 13.8047 46.5312 13.7578 46.4922 13.7266C46.4531 13.6953 46.4141 13.6562 46.375 13.6094C46.3203 13.5469 46.2695 13.4805 46.2227 13.4102C46.1758 13.332 46.1289 13.2539 46.082 13.1758C45.9258 12.957 45.7773 12.7422 45.6367 12.5312C45.5039 12.3203 45.3711 12.1016 45.2383 11.875C45.2773 11.75 45.2969 11.6562 45.2969 11.5938C45.2969 11.5312 45.3164 11.4805 45.3555 11.4414C45.3555 11.4102 45.3633 11.3633 45.3789 11.3008C45.4805 11.1289 45.5781 10.9727 45.6719 10.832C45.7578 10.6992 45.8164 10.5898 45.8477 10.5039C45.8867 10.418 45.9258 10.3281 45.9648 10.2344C46.0039 10.2109 46.0352 10.1836 46.0586 10.1523C46.082 10.1133 46.1133 10.0781 46.1523 10.0469C46.168 9.96094 46.2031 9.89062 46.2578 9.83594C46.3125 9.77344 46.3477 9.69922 46.3633 9.61328C46.4336 9.55859 46.4727 9.49609 46.4805 9.42578C46.582 9.35547 46.6445 9.26172 46.668 9.14453C46.7305 9.08203 46.7812 9.01172 46.8203 8.93359C46.8672 8.85547 46.9102 8.77344 46.9492 8.6875C47.043 8.60938 47.1172 8.50781 47.1719 8.38281C47.2188 8.35156 47.2539 8.30859 47.2773 8.25391C47.3008 8.19922 47.332 8.15234 47.3711 8.11328C47.4336 8.01172 47.4805 7.92969 47.5117 7.86719C47.5508 7.79688 47.5898 7.72656 47.6289 7.65625C47.6836 7.65625 47.7188 7.63672 47.7344 7.59766C47.75 7.55859 47.7812 7.54297 47.8281 7.55078C47.8281 7.48047 47.8477 7.41797 47.8867 7.36328C47.9023 7.35547 47.9258 7.34766 47.957 7.33984C47.9883 7.32422 48.0039 7.30859 48.0039 7.29297C47.9883 7.19922 47.9922 7.14453 48.0156 7.12891C48.0391 7.11328 48.0586 7.09766 48.0742 7.08203C48.1602 7.09766 48.2188 7.10938 48.25 7.11719C48.2812 7.125 48.332 7.15234 48.4023 7.19922C48.4805 7.19922 48.5352 7.21484 48.5664 7.24609C48.5977 7.27734 48.6328 7.30078 48.6719 7.31641C48.7031 7.34766 48.7266 7.37891 48.7422 7.41016C48.7656 7.44141 48.7969 7.46484 48.8359 7.48047C48.8984 7.56641 48.9648 7.66016 49.0352 7.76172C49.1055 7.86328 49.1719 7.95703 49.2344 8.04297C49.3203 8.16016 49.4062 8.27344 49.4922 8.38281C49.5859 8.48438 49.6719 8.59766 49.75 8.72266C49.7734 8.76172 49.8164 8.83203 49.8789 8.93359C49.9414 9.02734 50.0117 9.12891 50.0898 9.23828C50.168 9.34766 50.2383 9.44922 50.3008 9.54297C50.3633 9.62891 50.4062 9.67969 50.4297 9.69531C50.4531 9.73438 50.5039 9.80859 50.582 9.91797C50.6602 10.0273 50.7422 10.1445 50.8281 10.2695C50.9219 10.3867 51.0117 10.5 51.0977 10.6094C51.1836 10.7188 51.2422 10.7891 51.2734 10.8203C51.3594 10.9375 51.4219 11.0352 51.4609 11.1133C51.5078 11.1836 51.5508 11.2617 51.5898 11.3477ZM48.9062 13.5508C48.9922 13.4336 49.0586 13.3281 49.1055 13.2344C49.1523 13.1406 49.1992 13.0469 49.2461 12.9531C49.3242 12.8594 49.3711 12.793 49.3867 12.7539C49.4023 12.7148 49.4219 12.6758 49.4453 12.6367C49.5078 12.543 49.5703 12.4492 49.6328 12.3555C49.7031 12.2617 49.7578 12.1602 49.7969 12.0508C49.8438 12.0195 49.8789 11.9805 49.9023 11.9336C49.9258 11.8867 49.9609 11.8438 50.0078 11.8047C49.9609 11.6406 49.9062 11.5156 49.8438 11.4297C49.7812 11.3359 49.7188 11.2461 49.6562 11.1602C49.6328 11.1211 49.6094 11.082 49.5859 11.043C49.5625 11.0039 49.5391 10.9648 49.5156 10.9258C49.4844 10.9023 49.457 10.8789 49.4336 10.8555C49.418 10.832 49.3984 10.8086 49.375 10.7852C49.3594 10.7461 49.3359 10.6953 49.3047 10.6328C49.2734 10.5938 49.2422 10.5586 49.2109 10.5273C49.1797 10.4961 49.1523 10.457 49.1289 10.4102C49.0977 10.3789 49.0586 10.3359 49.0117 10.2812C48.9648 10.2266 48.9141 10.168 48.8594 10.1055C48.8125 10.0352 48.7695 9.97266 48.7305 9.91797C48.6914 9.85547 48.6602 9.80469 48.6367 9.76562C48.6211 9.72656 48.6055 9.69531 48.5898 9.67188C48.582 9.64062 48.5703 9.60938 48.5547 9.57812C48.5156 9.52344 48.4766 9.47656 48.4375 9.4375C48.3984 9.39062 48.3594 9.33984 48.3203 9.28516C48.2969 9.30078 48.2734 9.3125 48.25 9.32031C48.2344 9.32031 48.2188 9.32812 48.2031 9.34375C48.1484 9.44531 48.0859 9.53906 48.0156 9.625C47.9531 9.71094 47.8906 9.80469 47.8281 9.90625C47.7734 10 47.7188 10.0977 47.6641 10.1992C47.6094 10.293 47.5547 10.3867 47.5 10.4805C47.4609 10.5352 47.4219 10.5898 47.3828 10.6445C47.3516 10.6914 47.3164 10.7461 47.2773 10.8086C47.2383 10.8633 47.2031 10.9219 47.1719 10.9844C47.1484 11.0391 47.1172 11.0938 47.0781 11.1484C47.0156 11.2266 46.9648 11.2969 46.9258 11.3594C46.8867 11.4219 46.8477 11.4961 46.8086 11.582C46.832 11.6289 46.8672 11.6953 46.9141 11.7812C46.9688 11.8594 47.0234 11.9414 47.0781 12.0273C47.1328 12.1055 47.1797 12.1797 47.2188 12.25C47.2656 12.3203 47.293 12.3672 47.3008 12.3906C47.3633 12.4453 47.4141 12.5078 47.4531 12.5781C47.4922 12.6406 47.543 12.7031 47.6055 12.7656C47.6367 12.8281 47.6719 12.8828 47.7109 12.9297C47.75 12.9766 47.7891 13.0273 47.8281 13.082C47.8672 13.1367 47.918 13.2188 47.9805 13.3281C48.043 13.4297 48.1055 13.5352 48.168 13.6445C48.2305 13.7539 48.293 13.8555 48.3555 13.9492C48.418 14.043 48.4688 14.1016 48.5078 14.125C48.5859 14.0391 48.6484 13.9453 48.6953 13.8438C48.75 13.7344 48.8203 13.6367 48.9062 13.5508ZM58.4453 11.5117C58.4609 11.5664 58.4922 11.625 58.5391 11.6875C58.5859 11.75 58.6094 11.7969 58.6094 11.8281C58.5469 11.9766 58.5 12.0938 58.4688 12.1797C58.4375 12.2578 58.3867 12.3281 58.3164 12.3906C58.3164 12.4141 58.293 12.4648 58.2461 12.543C58.1992 12.6211 58.1445 12.707 58.082 12.8008C58.0273 12.8867 57.9688 12.9727 57.9062 13.0586C57.8516 13.1367 57.8164 13.1914 57.8008 13.2227C57.7617 13.2852 57.7305 13.3477 57.707 13.4102C57.6836 13.4648 57.6562 13.5195 57.625 13.5742C57.5547 13.6992 57.4805 13.8164 57.4023 13.9258C57.332 14.0352 57.2656 14.1562 57.2031 14.2891C57.1641 14.3281 57.1289 14.3711 57.0977 14.418C57.0664 14.4648 57.0312 14.5078 56.9922 14.5469C56.8984 14.7188 56.7891 14.8789 56.6641 15.0273C56.5469 15.1758 56.4375 15.3398 56.3359 15.5195C56.4219 15.6055 56.4648 15.7148 56.4648 15.8477C56.4648 15.918 56.4453 15.957 56.4062 15.9648C56.3672 15.9648 56.332 15.9727 56.3008 15.9883C56.2227 16.043 56.1523 16.0742 56.0898 16.082C56.0273 16.0898 55.9766 16.0938 55.9375 16.0938C55.8516 16.0938 55.7578 16.0898 55.6562 16.082C55.5547 16.082 55.4688 16.0898 55.3984 16.1055C55.375 16.1133 55.3477 16.125 55.3164 16.1406C55.2852 16.1641 55.2617 16.1758 55.2461 16.1758C55.1836 16.1758 55.1367 16.1641 55.1055 16.1406C55.082 16.125 55.0469 16.1094 55 16.0938C54.9375 16.0234 54.8789 15.9492 54.8242 15.8711C54.7773 15.793 54.7266 15.7148 54.6719 15.6367C54.625 15.582 54.5742 15.5352 54.5195 15.4961C54.4648 15.4492 54.4141 15.3945 54.3672 15.332C54.2422 15.1523 54.1133 14.9805 53.9805 14.8164C53.8555 14.6523 53.7266 14.4883 53.5938 14.3242C53.5312 14.2383 53.4609 14.1562 53.3828 14.0781C53.3125 14 53.2461 13.9219 53.1836 13.8438C53.1211 13.7578 53.0625 13.668 53.0078 13.5742C52.9531 13.4805 52.8945 13.3906 52.832 13.3047C52.7852 13.2266 52.7188 13.1328 52.6328 13.0234C52.5469 12.9062 52.457 12.7891 52.3633 12.6719C52.2695 12.5547 52.1719 12.4453 52.0703 12.3438C51.9766 12.2344 51.8945 12.1523 51.8242 12.0977C51.8242 12.043 51.8086 12.0039 51.7773 11.9805C51.7461 11.957 51.7109 11.9297 51.6719 11.8984C51.6562 11.8594 51.6367 11.8242 51.6133 11.793C51.5898 11.7539 51.5781 11.7109 51.5781 11.6641C51.5781 11.6094 51.5898 11.5586 51.6133 11.5117C51.6289 11.4805 51.6367 11.4531 51.6367 11.4297C51.6445 11.3984 51.6562 11.3672 51.6719 11.3359C51.7109 11.2344 51.7656 11.1445 51.8359 11.0664C51.9141 10.9883 51.9727 10.8984 52.0117 10.7969C52.0195 10.7656 52.0234 10.7383 52.0234 10.7148C52.0234 10.6836 52.0312 10.6523 52.0469 10.6211C52.0703 10.5664 52.1055 10.5195 52.1523 10.4805C52.1992 10.4336 52.2422 10.3828 52.2812 10.3281C52.3203 10.2578 52.3594 10.1875 52.3984 10.1172C52.4375 10.0469 52.4766 9.97656 52.5156 9.90625C52.625 9.72656 52.7461 9.55469 52.8789 9.39062C53.0117 9.21875 53.1367 9.05078 53.2539 8.88672C53.3633 8.73047 53.4648 8.57812 53.5586 8.42969C53.6523 8.27344 53.7539 8.11719 53.8633 7.96094C53.918 7.88281 53.9805 7.79688 54.0508 7.70312C54.1211 7.60156 54.1914 7.50391 54.2617 7.41016C54.3398 7.31641 54.418 7.23047 54.4961 7.15234C54.5742 7.06641 54.6523 7.00391 54.7305 6.96484C54.8633 6.94922 54.9492 6.97266 54.9883 7.03516C55.0273 7.08984 55.082 7.11719 55.1523 7.11719C55.2617 7.14062 55.3359 7.17578 55.375 7.22266C55.4141 7.26953 55.4531 7.3125 55.4922 7.35156C55.5938 7.35156 55.6797 7.37109 55.75 7.41016C55.8203 7.44922 55.8906 7.50781 55.9609 7.58594C55.9297 7.67188 55.8867 7.75 55.832 7.82031C55.7852 7.89062 55.7422 7.96484 55.7031 8.04297C55.6406 8.06641 55.5938 8.10547 55.5625 8.16016C55.5391 8.21484 55.5 8.26172 55.4453 8.30078C55.3594 8.43359 55.2734 8.56641 55.1875 8.69922C55.1016 8.82422 55.0156 8.94531 54.9297 9.0625C54.8906 9.10938 54.8477 9.14844 54.8008 9.17969C54.7539 9.20312 54.7109 9.24219 54.6719 9.29688C54.6562 9.32031 54.6445 9.34766 54.6367 9.37891C54.6289 9.40234 54.6172 9.42578 54.6016 9.44922C54.5078 9.59766 54.4023 9.74219 54.2852 9.88281C54.168 10.0234 54.0664 10.1719 53.9805 10.3281C53.9414 10.3828 53.9102 10.4414 53.8867 10.5039C53.8633 10.5586 53.8359 10.6133 53.8047 10.668C53.7734 10.7227 53.7266 10.793 53.6641 10.8789C53.6094 10.957 53.5508 11.0391 53.4883 11.125C53.4336 11.2109 53.3828 11.2969 53.3359 11.3828C53.2969 11.4688 53.2773 11.5391 53.2773 11.5938C53.2852 11.6328 53.3359 11.7109 53.4297 11.8281C53.5234 11.9453 53.6289 12.0703 53.7461 12.2031C53.8633 12.3359 53.9727 12.4648 54.0742 12.5898C54.1836 12.707 54.25 12.7773 54.2734 12.8008C54.2891 12.8398 54.3477 12.9258 54.4492 13.0586C54.5508 13.1836 54.6641 13.3242 54.7891 13.4805C54.9219 13.6289 55.0508 13.7734 55.1758 13.9141C55.3008 14.0547 55.3867 14.1562 55.4336 14.2188L55.5273 14.3711C55.543 14.3633 55.582 14.3086 55.6445 14.207C55.7148 14.1055 55.7852 13.9922 55.8555 13.8672C55.9258 13.7422 55.9883 13.625 56.043 13.5156C56.1055 13.4062 56.1445 13.3359 56.1602 13.3047C56.1836 13.2812 56.2227 13.2188 56.2773 13.1172C56.332 13.0156 56.3906 12.9062 56.4531 12.7891C56.5234 12.6719 56.582 12.5625 56.6289 12.4609C56.6836 12.3594 56.7148 12.293 56.7227 12.2617H56.582C56.457 12.2617 56.332 12.2695 56.207 12.2852C56.0898 12.293 55.9688 12.3164 55.8438 12.3555C55.7891 12.3477 55.7422 12.332 55.7031 12.3086C55.6641 12.2852 55.6172 12.2617 55.5625 12.2383C55.5391 12.1602 55.5273 12.1055 55.5273 12.0742C55.5352 12.043 55.5352 12.0195 55.5273 12.0039C55.5195 11.9727 55.5078 11.9492 55.4922 11.9336C55.4844 11.918 55.4805 11.8945 55.4805 11.8633C55.4805 11.8086 55.4727 11.7656 55.457 11.7344C55.4414 11.6953 55.4258 11.6523 55.4102 11.6055C55.4102 11.5742 55.4102 11.543 55.4102 11.5117C55.418 11.4805 55.4141 11.4531 55.3984 11.4297C55.4141 11.2891 55.4023 11.1875 55.3633 11.125C55.3633 11.0156 55.3789 10.9453 55.4102 10.9141C55.4414 10.8828 55.4648 10.8359 55.4805 10.7734C55.5508 10.7969 55.6094 10.793 55.6562 10.7617C55.7109 10.7227 55.7656 10.7031 55.8203 10.7031C55.9453 10.7031 56.0469 10.6836 56.125 10.6445C56.1953 10.6367 56.2656 10.6328 56.3359 10.6328C56.4141 10.6328 56.4883 10.625 56.5586 10.6094C56.5977 10.6016 56.6289 10.5938 56.6523 10.5859C56.6836 10.5781 56.7188 10.5703 56.7578 10.5625C56.8047 10.5547 56.8555 10.5508 56.9102 10.5508C56.9648 10.5508 57.0156 10.5508 57.0625 10.5508C57.1875 10.5352 57.3125 10.5273 57.4375 10.5273C57.5625 10.5195 57.6875 10.5117 57.8125 10.5039C57.8516 10.5195 57.8867 10.5312 57.918 10.5391C57.957 10.5469 57.9922 10.5586 58.0234 10.5742C58.0469 10.5898 58.0664 10.6094 58.082 10.6328C58.0977 10.6484 58.125 10.6602 58.1641 10.668C58.2031 10.707 58.2305 10.7461 58.2461 10.7852C58.2305 10.8555 58.2344 10.9062 58.2578 10.9375C58.2188 10.9766 58.1953 11.0312 58.1875 11.1016C58.1875 11.1641 58.1836 11.2227 58.1758 11.2773C58.2305 11.293 58.2773 11.3359 58.3164 11.4062C58.3555 11.4766 58.3828 11.5117 58.3984 11.5117H58.4453Z" fill="white"/>
<path id="Polygon 1" d="M89 11L89 19C89 20.1046 88.1046 21 87 21H76C74.8954 21 74 20.1046 74 19L74 6C74 4.89543 74.8954 4 76 4H82" stroke="black"/>
<line id="Line 4" x1="77" y1="9.5" x2="81" y2="9.5" stroke="black"/>
<line id="Line 3" x1="77" y1="13.5" x2="86" y2="13.5" stroke="black"/>
<line id="Line 2" x1="77" y1="17.5" x2="86" y2="17.5" stroke="black"/>
<path id="Arrow 1" d="M83.6464 8.64645C83.4512 8.84171 83.4512 9.15829 83.6464 9.35355C83.8417 9.54882 84.1583 9.54882 84.3536 9.35355L83.6464 8.64645ZM89.5 4C89.5 3.72386 89.2761 3.5 89 3.5H84.5C84.2239 3.5 84 3.72386 84 4C84 4.27614 84.2239 4.5 84.5 4.5H88.5V8.5C88.5 8.77614 88.7239 9 89 9C89.2761 9 89.5 8.77614 89.5 8.5V4ZM84.3536 9.35355L89.3536 4.35355L88.6464 3.64645L83.6464 8.64645L84.3536 9.35355Z" fill="black"/>
</g>
</svg>
