<svg viewBox="0 0 525 393" fill="none" xmlns="http://www.w3.org/2000/svg">
<g id="Desktop - 1">
<g clip-path="url(#clip0_4_2)">
<path d="M0 45C0 20.1472 20.1472 0 45 0H480C504.853 0 525 20.1472 525 45V393H0V45Z" fill="white"/>
<rect id="Rectangle4" width="525" height="461" rx="47" fill="#D9D9D9"/>
<rect id="Rectangle1" x="18" y="21" width="490" height="110" rx="30" fill="#D9D9D9" stroke="black" stroke-width="10"/>
<rect id="Rectangle3" x="18" y="153" width="490" height="290" rx="30" fill="black" stroke="black" stroke-width="10"/>
<circle id="Ellipse7" cx="68" cy="203" r="35" fill="#D9D9D9"/>
<path id="Ellipse8" d="M233 203C233 222.33 217.33 238 198 238C178.67 238 163 222.33 163 203C163 183.67 178.67 168 198 168C217.33 168 233 183.67 233 203Z" fill="#D9D9D9"/>
<path id="-" d="M204.682 203.159V206.909H189.409V203.159H204.682Z" fill="black"/>
<circle id="Ellipse9" cx="198" cy="305" r="35" fill="#D9D9D9"/>
<path id="2" d="M186.614 322V318.932L198.136 306.318C199.489 304.841 200.602 303.557 201.477 302.466C202.352 301.364 203 300.33 203.42 299.364C203.852 298.386 204.068 297.364 204.068 296.295C204.068 295.068 203.773 294.006 203.182 293.108C202.602 292.21 201.807 291.517 200.795 291.028C199.784 290.54 198.648 290.295 197.386 290.295C196.045 290.295 194.875 290.574 193.875 291.131C192.886 291.676 192.119 292.443 191.574 293.432C191.04 294.42 190.773 295.58 190.773 296.909H186.75C186.75 294.864 187.222 293.068 188.165 291.523C189.108 289.977 190.392 288.773 192.017 287.909C193.653 287.045 195.489 286.614 197.523 286.614C199.568 286.614 201.381 287.045 202.96 287.909C204.54 288.773 205.778 289.937 206.676 291.403C207.574 292.869 208.023 294.5 208.023 296.295C208.023 297.58 207.79 298.835 207.324 300.062C206.869 301.278 206.074 302.636 204.938 304.136C203.812 305.625 202.25 307.443 200.25 309.591L192.409 317.977V318.25H208.636V322H186.614Z" fill="black"/>
<circle id="Ellipse13" cx="458" cy="305" r="35" fill="#D9D9D9"/>
<path id="=" d="M447.318 304.159V300.477H468.318V304.159H447.318ZM447.318 314.25V310.568H468.318V314.25H447.318Z" fill="black"/>
<circle id="Ellipse14" cx="338" cy="305" r="35" fill="#D9D9D9"/>
<path id="3" d="M337.409 321.477C335.159 321.477 333.153 321.091 331.392 320.318C329.642 319.545 328.25 318.472 327.216 317.097C326.193 315.71 325.636 314.102 325.545 312.273H329.841C329.932 313.398 330.318 314.369 331 315.188C331.682 315.994 332.574 316.619 333.676 317.062C334.778 317.506 336 317.727 337.341 317.727C338.841 317.727 340.17 317.466 341.33 316.943C342.489 316.42 343.398 315.693 344.057 314.761C344.716 313.83 345.045 312.75 345.045 311.523C345.045 310.239 344.727 309.108 344.091 308.131C343.455 307.142 342.523 306.369 341.295 305.812C340.068 305.256 338.568 304.977 336.795 304.977H334V301.227H336.795C338.182 301.227 339.398 300.977 340.443 300.477C341.5 299.977 342.324 299.273 342.915 298.364C343.517 297.455 343.818 296.386 343.818 295.159C343.818 293.977 343.557 292.949 343.034 292.074C342.511 291.199 341.773 290.517 340.818 290.028C339.875 289.54 338.761 289.295 337.477 289.295C336.273 289.295 335.136 289.517 334.068 289.96C333.011 290.392 332.148 291.023 331.477 291.852C330.807 292.67 330.443 293.659 330.386 294.818H326.295C326.364 292.989 326.915 291.386 327.949 290.011C328.983 288.625 330.335 287.545 332.006 286.773C333.688 286 335.534 285.614 337.545 285.614C339.705 285.614 341.557 286.051 343.102 286.926C344.648 287.79 345.835 288.932 346.665 290.352C347.494 291.773 347.909 293.307 347.909 294.955C347.909 296.92 347.392 298.597 346.358 299.983C345.335 301.369 343.943 302.33 342.182 302.864V303.136C344.386 303.5 346.108 304.437 347.347 305.949C348.585 307.449 349.205 309.307 349.205 311.523C349.205 313.42 348.688 315.125 347.653 316.636C346.631 318.136 345.233 319.318 343.46 320.182C341.688 321.045 339.67 321.477 337.409 321.477Z" fill="black"/>
<circle id="Ellipse10" cx="71" cy="305" r="35" fill="#D9D9D9"/>
<path id="1" d="M71.8864 287.091V322H67.6591V291.523H67.4545L58.9318 297.182V292.886L67.6591 287.091H71.8864Z" fill="black"/>
<circle id="Ellipse11" cx="458" cy="203" r="35" fill="#D9D9D9"/>
<path id="/" d="M465.023 182.455L453.773 224.25H450.091L461.341 182.455H465.023Z" fill="black"/>
<circle id="Ellipse12" cx="338" cy="203" r="35" fill="#D9D9D9"/>
<path id="x" d="M330.682 192.818L336.955 203.523L343.227 192.818H347.864L339.409 205.909L347.864 219H343.227L336.955 208.841L330.682 219H326.045L334.364 205.909L326.045 192.818H330.682Z" fill="black"/>
<path id="+" d="M65.9091 216.614V194.114H69.7273V216.614H65.9091ZM56.5682 207.273V203.455H79.0682V207.273H56.5682Z" fill="black"/>
<path id="1_2" d="M370.886 35.0909V70H366.659V39.5227H366.455L357.932 45.1818V40.8864L366.659 35.0909H370.886Z" fill="black"/>
<path id="3_2" d="M447.409 70.4773C445.159 70.4773 443.153 70.0909 441.392 69.3182C439.642 68.5455 438.25 67.4716 437.216 66.0966C436.193 64.7102 435.636 63.1023 435.545 61.2727H439.841C439.932 62.3977 440.318 63.3693 441 64.1875C441.682 64.9943 442.574 65.6193 443.676 66.0625C444.778 66.5057 446 66.7273 447.341 66.7273C448.841 66.7273 450.17 66.4659 451.33 65.9432C452.489 65.4205 453.398 64.6932 454.057 63.7614C454.716 62.8295 455.045 61.75 455.045 60.5227C455.045 59.2386 454.727 58.108 454.091 57.1307C453.455 56.142 452.523 55.3693 451.295 54.8125C450.068 54.2557 448.568 53.9773 446.795 53.9773H444V50.2273H446.795C448.182 50.2273 449.398 49.9773 450.443 49.4773C451.5 48.9773 452.324 48.2727 452.915 47.3636C453.517 46.4545 453.818 45.3864 453.818 44.1591C453.818 42.9773 453.557 41.9489 453.034 41.0739C452.511 40.1989 451.773 39.517 450.818 39.0284C449.875 38.5398 448.761 38.2955 447.477 38.2955C446.273 38.2955 445.136 38.517 444.068 38.9602C443.011 39.392 442.148 40.0227 441.477 40.8523C440.807 41.6705 440.443 42.6591 440.386 43.8182H436.295C436.364 41.9886 436.915 40.3864 437.949 39.0114C438.983 37.625 440.335 36.5455 442.006 35.7727C443.688 35 445.534 34.6136 447.545 34.6136C449.705 34.6136 451.557 35.0511 453.102 35.9261C454.648 36.7898 455.835 37.9318 456.665 39.3523C457.494 40.7727 457.909 42.3068 457.909 43.9545C457.909 45.9205 457.392 47.5966 456.358 48.983C455.335 50.3693 453.943 51.3295 452.182 51.8636V52.1364C454.386 52.5 456.108 53.4375 457.347 54.9489C458.585 56.4489 459.205 58.3068 459.205 60.5227C459.205 62.4205 458.688 64.125 457.653 65.6364C456.631 67.1364 455.233 68.3182 453.46 69.1818C451.688 70.0455 449.67 70.4773 447.409 70.4773Z" fill="black"/>
<path id="=_2" d="M398.318 91.1591V87.4773H419.318V91.1591H398.318ZM398.318 101.25V97.5682H419.318V101.25H398.318Z" fill="black"/>
<path id="4" d="M438.795 108.841V105.364L454.136 81.0909H456.659V86.4773H454.955L443.364 104.818V105.091H464.023V108.841H438.795ZM455.227 116V107.784V106.165V81.0909H459.25V116H455.227Z" fill="black"/>
<path id="+_2" d="M399.909 67.6136V45.1136H403.727V67.6136H399.909ZM390.568 58.2727V54.4545H413.068V58.2727H390.568Z" fill="black"/>
</g>
</g>
<defs>
<clipPath id="clip0_4_2">
<path d="M0 45C0 20.1472 20.1472 0 45 0H480C504.853 0 525 20.1472 525 45V393H0V45Z" fill="white"/>
</clipPath>
</defs>
</svg>
