<svg width="120" height="30" viewBox="0 0 120 30" fill="none" xmlns="http://www.w3.org/2000/svg">
<g id="Frame 1">
<g clip-path="url(#clip0_1_2)">
<rect width="120" height="30" rx="9" fill="#707070"/>
<rect id="Rectangle 1" x="1.5" y="1.5" width="117" height="27" rx="7.5" fill="#00FF37" stroke="#835307" stroke-width="3"/>
<path id="1" d="M69.872 22.028L68.576 20.792V17.84L69.872 16.664V22.028ZM69.836 10.88V16.244L68.54 15.08V12.116L69.836 10.88Z" fill="black"/>
<path id="=" d="M90.676 19.444C90.38 19.22 90.1 19.008 89.836 18.808L90.676 18.16H94.924L95.764 18.808L94.924 19.444H90.676ZM90.676 17.176C90.38 16.944 90.1 16.724 89.836 16.516L90.676 15.88H94.924L95.764 16.516L94.924 17.176H90.676Z" fill="black"/>
<path id="1_2" d="M85.872 22.028L84.576 20.792V17.84L85.872 16.664V22.028ZM85.836 10.88V16.244L84.54 15.08V12.116L85.836 10.88Z" fill="black"/>
<path id="+" d="M75.156 19.096C74.876 18.864 74.596 18.644 74.316 18.436L75.156 17.8H76.164V16.792C76.372 16.536 76.584 16.26 76.8 15.964L77.436 16.792V17.8H78.444L79.284 18.436L78.444 19.096H77.436V20.08L76.8 20.92L76.164 20.08V19.096H75.156Z" fill="black"/>
<path id="11" d="M100.872 22.028L99.576 20.792V17.84L100.872 16.664V22.028ZM100.836 10.88V16.244L99.54 15.08V12.116L100.836 10.88ZM110.47 22.028L109.174 20.792V17.84L110.47 16.664V22.028ZM110.434 10.88V16.244L109.138 15.08V12.116L110.434 10.88Z" fill="black"/>
</g>
</g>
<defs>
<clipPath id="clip0_1_2">
<rect width="120" height="30" rx="9" fill="white"/>
</clipPath>
</defs>
</svg>
