<svg width="100" height="40" viewBox="0 0 100 40" fill="none" xmlns="http://www.w3.org/2000/svg">
<g id="Frame 1">
<rect id="Rectangle 1" x="10.5" y="13.5" width="14" height="14" rx="3.5" fill="#D9D9D9" stroke="#025AFD"/>
<line id="Line 1" x1="33" y1="27.5" x2="88" y2="27.5" stroke="#025AFD"/>
<path id="To Do" d="M48.1426 15.4688V24H47.0293V15.4688H48.1426ZM50.8848 15.4688V16.3945H44.293V15.4688H50.8848ZM51.1133 20.9004V20.7656C51.1133 20.3086 51.1797 19.8848 51.3125 19.4941C51.4453 19.0996 51.6367 18.7578 51.8867 18.4688C52.1367 18.1758 52.4395 17.9492 52.7949 17.7891C53.1504 17.625 53.5488 17.543 53.9902 17.543C54.4355 17.543 54.8359 17.625 55.1914 17.7891C55.5508 17.9492 55.8555 18.1758 56.1055 18.4688C56.3594 18.7578 56.5527 19.0996 56.6855 19.4941C56.8184 19.8848 56.8848 20.3086 56.8848 20.7656V20.9004C56.8848 21.3574 56.8184 21.7812 56.6855 22.1719C56.5527 22.5625 56.3594 22.9043 56.1055 23.1973C55.8555 23.4863 55.5527 23.7129 55.1973 23.877C54.8457 24.0371 54.4473 24.1172 54.002 24.1172C53.5566 24.1172 53.1562 24.0371 52.8008 23.877C52.4453 23.7129 52.1406 23.4863 51.8867 23.1973C51.6367 22.9043 51.4453 22.5625 51.3125 22.1719C51.1797 21.7812 51.1133 21.3574 51.1133 20.9004ZM52.1973 20.7656V20.9004C52.1973 21.2168 52.2344 21.5156 52.3086 21.7969C52.3828 22.0742 52.4941 22.3203 52.6426 22.5352C52.7949 22.75 52.9844 22.9199 53.2109 23.0449C53.4375 23.166 53.7012 23.2266 54.002 23.2266C54.2988 23.2266 54.5586 23.166 54.7812 23.0449C55.0078 22.9199 55.1953 22.75 55.3438 22.5352C55.4922 22.3203 55.6035 22.0742 55.6777 21.7969C55.7559 21.5156 55.7949 21.2168 55.7949 20.9004V20.7656C55.7949 20.4531 55.7559 20.1582 55.6777 19.8809C55.6035 19.5996 55.4902 19.3516 55.3379 19.1367C55.1895 18.918 55.002 18.7461 54.7754 18.6211C54.5527 18.4961 54.291 18.4336 53.9902 18.4336C53.6934 18.4336 53.4316 18.4961 53.2051 18.6211C52.9824 18.7461 52.7949 18.918 52.6426 19.1367C52.4941 19.3516 52.3828 19.5996 52.3086 19.8809C52.2344 20.1582 52.1973 20.4531 52.1973 20.7656ZM63.6934 24H61.9121L61.9238 23.0801H63.6934C64.3027 23.0801 64.8105 22.9531 65.2168 22.6992C65.623 22.4414 65.9277 22.082 66.1309 21.6211C66.3379 21.1562 66.4414 20.6133 66.4414 19.9922V19.4707C66.4414 18.9824 66.3828 18.5488 66.2656 18.1699C66.1484 17.7871 65.9766 17.4648 65.75 17.2031C65.5234 16.9375 65.2461 16.7363 64.918 16.5996C64.5938 16.4629 64.2207 16.3945 63.7988 16.3945H61.877V15.4688H63.7988C64.3574 15.4688 64.8672 15.5625 65.3281 15.75C65.7891 15.9336 66.1855 16.2012 66.5176 16.5527C66.8535 16.9004 67.1113 17.3223 67.291 17.8184C67.4707 18.3105 67.5605 18.8652 67.5605 19.4824V19.9922C67.5605 20.6094 67.4707 21.166 67.291 21.6621C67.1113 22.1543 66.8516 22.5742 66.5117 22.9219C66.1758 23.2695 65.7695 23.5371 65.293 23.7246C64.8203 23.9082 64.2871 24 63.6934 24ZM62.5156 15.4688V24H61.3848V15.4688H62.5156ZM68.8086 20.9004V20.7656C68.8086 20.3086 68.875 19.8848 69.0078 19.4941C69.1406 19.0996 69.332 18.7578 69.582 18.4688C69.832 18.1758 70.1348 17.9492 70.4902 17.7891C70.8457 17.625 71.2441 17.543 71.6855 17.543C72.1309 17.543 72.5312 17.625 72.8867 17.7891C73.2461 17.9492 73.5508 18.1758 73.8008 18.4688C74.0547 18.7578 74.248 19.0996 74.3809 19.4941C74.5137 19.8848 74.5801 20.3086 74.5801 20.7656V20.9004C74.5801 21.3574 74.5137 21.7812 74.3809 22.1719C74.248 22.5625 74.0547 22.9043 73.8008 23.1973C73.5508 23.4863 73.248 23.7129 72.8926 23.877C72.541 24.0371 72.1426 24.1172 71.6973 24.1172C71.252 24.1172 70.8516 24.0371 70.4961 23.877C70.1406 23.7129 69.8359 23.4863 69.582 23.1973C69.332 22.9043 69.1406 22.5625 69.0078 22.1719C68.875 21.7812 68.8086 21.3574 68.8086 20.9004ZM69.8926 20.7656V20.9004C69.8926 21.2168 69.9297 21.5156 70.0039 21.7969C70.0781 22.0742 70.1895 22.3203 70.3379 22.5352C70.4902 22.75 70.6797 22.9199 70.9062 23.0449C71.1328 23.166 71.3965 23.2266 71.6973 23.2266C71.9941 23.2266 72.2539 23.166 72.4766 23.0449C72.7031 22.9199 72.8906 22.75 73.0391 22.5352C73.1875 22.3203 73.2988 22.0742 73.373 21.7969C73.4512 21.5156 73.4902 21.2168 73.4902 20.9004V20.7656C73.4902 20.4531 73.4512 20.1582 73.373 19.8809C73.2988 19.5996 73.1855 19.3516 73.0332 19.1367C72.8848 18.918 72.6973 18.7461 72.4707 18.6211C72.248 18.4961 71.9863 18.4336 71.6855 18.4336C71.3887 18.4336 71.127 18.4961 70.9004 18.6211C70.6777 18.7461 70.4902 18.918 70.3379 19.1367C70.1895 19.3516 70.0781 19.5996 70.0039 19.8809C69.9297 20.1582 69.8926 20.4531 69.8926 20.7656Z" fill="white"/>
<rect id="Rectangle 2" x="12" y="15" width="11" height="11" rx="4" fill="#025AFD"/>
<line id="Line 2" x1="33" y1="19.5" x2="88" y2="19.5" stroke="#222222"/>
</g>
</svg>
